<svg xmlns="http://www.w3.org/2000/svg" version="1.1" xmlns:xlink="http://www.w3.org/1999/xlink" xmlns:svgjs="http://svgjs.com/svgjs" width="1440" height="560" preserveAspectRatio="none" viewBox="0 0 1440 560"><g mask="url(&quot;#SvgjsMask2131&quot;)" fill="none"><rect width="1440" height="560" x="0" y="0" fill="rgba(254, 200, 154, 1)"></rect><path d="M1386 111L1385 -70" stroke-width="8" stroke="url(#SvgjsLinearGradient2132)" stroke-linecap="round" class="Down"></path><path d="M527 42L526 251" stroke-width="10" stroke="url(#SvgjsLinearGradient2133)" stroke-linecap="round" class="Up"></path><path d="M238 272L237 680" stroke-width="10" stroke="url(#SvgjsLinearGradient2132)" stroke-linecap="round" class="Down"></path><path d="M1346 3L1345 373" stroke-width="6" stroke="url(#SvgjsLinearGradient2132)" stroke-linecap="round" class="Down"></path><path d="M225 322L224 135" stroke-width="10" stroke="url(#SvgjsLinearGradient2133)" stroke-linecap="round" class="Up"></path><path d="M316 109L315 444" stroke-width="10" stroke="url(#SvgjsLinearGradient2133)" stroke-linecap="round" class="Up"></path><path d="M432 328L431 686" stroke-width="6" stroke="url(#SvgjsLinearGradient2133)" stroke-linecap="round" class="Up"></path><path d="M190 318L189 697" stroke-width="8" stroke="url(#SvgjsLinearGradient2132)" stroke-linecap="round" class="Down"></path><path d="M958 443L957 93" stroke-width="6" stroke="url(#SvgjsLinearGradient2133)" stroke-linecap="round" class="Up"></path><path d="M110 309L109 -74" stroke-width="10" stroke="url(#SvgjsLinearGradient2133)" stroke-linecap="round" class="Up"></path><path d="M1082 288L1081 -116" stroke-width="6" stroke="url(#SvgjsLinearGradient2133)" stroke-linecap="round" class="Up"></path><path d="M186 293L185 -2" stroke-width="8" stroke="url(#SvgjsLinearGradient2133)" stroke-linecap="round" class="Up"></path><path d="M1251 133L1250 434" stroke-width="8" stroke="url(#SvgjsLinearGradient2132)" stroke-linecap="round" class="Down"></path><path d="M1147 107L1146 388" stroke-width="8" stroke="url(#SvgjsLinearGradient2133)" stroke-linecap="round" class="Up"></path><path d="M271 38L270 -219" stroke-width="8" stroke="url(#SvgjsLinearGradient2132)" stroke-linecap="round" class="Down"></path><path d="M821 478L820 254" stroke-width="10" stroke="url(#SvgjsLinearGradient2133)" stroke-linecap="round" class="Up"></path><path d="M1374 555L1373 718" stroke-width="6" stroke="url(#SvgjsLinearGradient2132)" stroke-linecap="round" class="Down"></path><path d="M861 515L860 173" stroke-width="10" stroke="url(#SvgjsLinearGradient2133)" stroke-linecap="round" class="Up"></path><path d="M668 360L667 742" stroke-width="6" stroke="url(#SvgjsLinearGradient2132)" stroke-linecap="round" class="Down"></path><path d="M763 407L762 813" stroke-width="10" stroke="url(#SvgjsLinearGradient2132)" stroke-linecap="round" class="Down"></path><path d="M710 312L709 720" stroke-width="8" stroke="url(#SvgjsLinearGradient2132)" stroke-linecap="round" class="Down"></path><path d="M555 373L554 653" stroke-width="8" stroke="url(#SvgjsLinearGradient2132)" stroke-linecap="round" class="Down"></path><path d="M91 16L90 284" stroke-width="8" stroke="url(#SvgjsLinearGradient2132)" stroke-linecap="round" class="Down"></path><path d="M437 466L436 82" stroke-width="8" stroke="url(#SvgjsLinearGradient2132)" stroke-linecap="round" class="Down"></path><path d="M1142 306L1141 552" stroke-width="8" stroke="url(#SvgjsLinearGradient2132)" stroke-linecap="round" class="Down"></path><path d="M446 432L445 290" stroke-width="10" stroke="url(#SvgjsLinearGradient2133)" stroke-linecap="round" class="Up"></path><path d="M457 447L456 152" stroke-width="10" stroke="url(#SvgjsLinearGradient2132)" stroke-linecap="round" class="Down"></path><path d="M336 269L335 -30" stroke-width="6" stroke="url(#SvgjsLinearGradient2133)" stroke-linecap="round" class="Up"></path><path d="M300 346L299 670" stroke-width="8" stroke="url(#SvgjsLinearGradient2132)" stroke-linecap="round" class="Down"></path><path d="M202 22L201 -183" stroke-width="10" stroke="url(#SvgjsLinearGradient2132)" stroke-linecap="round" class="Down"></path><path d="M1235 29L1234 323" stroke-width="8" stroke="url(#SvgjsLinearGradient2133)" stroke-linecap="round" class="Up"></path><path d="M1065 423L1064 764" stroke-width="8" stroke="url(#SvgjsLinearGradient2133)" stroke-linecap="round" class="Up"></path><path d="M307 518L306 731" stroke-width="8" stroke="url(#SvgjsLinearGradient2132)" stroke-linecap="round" class="Down"></path><path d="M773 248L772 624" stroke-width="10" stroke="url(#SvgjsLinearGradient2132)" stroke-linecap="round" class="Down"></path><path d="M1346 297L1345 35" stroke-width="6" stroke="url(#SvgjsLinearGradient2133)" stroke-linecap="round" class="Up"></path><path d="M398 389L397 678" stroke-width="6" stroke="url(#SvgjsLinearGradient2133)" stroke-linecap="round" class="Up"></path></g><defs><mask id="SvgjsMask2131"><rect width="1440" height="560" fill="#ffffff"></rect></mask><linearGradient x1="0%" y1="0%" x2="0%" y2="100%" id="SvgjsLinearGradient2132"><stop stop-color="rgba(231, 111, 81, 0)" offset="0"></stop><stop stop-color="rgba(231, 111, 81, 1)" offset="1"></stop></linearGradient><linearGradient x1="0%" y1="100%" x2="0%" y2="0%" id="SvgjsLinearGradient2133"><stop stop-color="rgba(231, 111, 81, 0)" offset="0"></stop><stop stop-color="rgba(231, 111, 81, 1)" offset="1"></stop></linearGradient></defs></svg>